<svg viewBox="0 0 46.2 61.2" xmlns="http://www.w3.org/2000/svg">
<path d="M23.1,49.5c-6.5,0-11.9-5.3-11.9-11.9s5.3-11.9,11.9-11.9S35,31.1,35,37.6S29.7,49.5,23.1,49.5z M23.1,27   c-5.9,0-10.6,4.8-10.6,10.6s4.8,10.6,10.6,10.6s10.6-4.8,10.6-10.6S29,27,23.1,27z"/>
<path d="M23.1,58.2C11.8,58.2,2.5,49,2.5,37.6V37h22.6c4.3,0,7.9-3.5,7.9-7.9s-3.5-7.9-7.9-7.9H11.6c-5,0-9.1-4.1-9.1-9.1   S6.6,3,11.6,3h32.1v34.6C43.7,49,34.5,58.2,23.1,58.2z M3.8,38.2C4.1,48.6,12.7,57,23.1,57c10.7,0,19.4-8.7,19.4-19.4V4.2H11.6   c-4.3,0-7.9,3.5-7.9,7.9S7.3,20,11.6,20h13.5c5,0,9.1,4.1,9.1,9.1s-4.1,9.1-9.1,9.1H3.8z"/>
<path d="M2.5,3v35.2h0c0.3,11.1,9.4,20,20.6,20s20.3-8.9,20.6-20h0V3H2.5z M22.5,35.3l-8.3-14.1h8.3V35.3z   M23.8,21.2H32l-8.3,14.1V21.2z M23.8,20V4.2H42L32.8,20H23.8z M22.5,20h-9L4.2,4.2h18.3V20z M12,20H3.8V5.9L12,20z M3.8,21.2h9  L22,37H3.8V21.2z M33.5,21.2h9V37H24.2L33.5,21.2z M42.5,20h-8.3l8.3-14.1V20z M23.1,57c-10.5,0-19-8.4-19.3-18.8h38.7  C42.1,48.6,33.6,57,23.1,57z"/>
</svg>
